{"title":"Beethoven's 4th 2001 DVDrip English Klam","uid":6508980,"size":1473486325,"categoryP":"video","categoryS":"movies","magnet":"?xt=urn:btih:b67647a37a202940262708522d129656105f39ec&amp;dn=Beethoven%5C%27s+4th+2001+DVDrip+English+Klam&amp;tr=udp%3A%2F%2Ftracker.openbittorrent.com%3A80&amp;tr=udp%3A%2F%2Fopen.demonii.com%3A1337&amp;tr=udp%3A%2F%2Ftracker.coppersurfer.tk%3A6969&amp;tr=udp%3A%2F%2Fexodus.desync.com%3A6969","seeders":6,"leechers":0,"uploader":"Klambake","files":-1,"time":1309550780,"description":"With: Judge Reinhold, Julia Sweeney en Michaela Gallo\n\nDe Newtons zijn aangenaam verrast als ze vaststellen dat Beethoven gehoorzaam is geworden. Wat ze echter niet weten is dat Beethoven gewoon van plaats heeft gewisseld met een andere hond, en zelf gezellig bij een steenrijke familie inwoont.\n\nThe family is pleasantly surprised and puzzled when Beethoven suddenly becomes obedient. Turns out it's a prince and the pauper scenario, with the real Beethoven now living with a pompous rich family. \n\n------------------ Dutch Friends ------------------\nYou can find my Friends at: http://www.Film-Test.nl \n------ They got my dutchs subs ---- and more ------\n\nGeneral:\n\nComplete name                    : Beethoven 4th\\Beethoven 4th.avi\nFormat                           : AVI\nFormat/Info                      : Audio Video Interleave\nFile size                        : 1.37 GiB\nDuration                         : 1h 29mn\nOverall bit rate                 : 2 189 Kbps\n\nVideo:\n\nFormat                           : MPEG-4 Visual\nFormat profile                   : Simple@L3\nFormat settings, BVOP            : No\nFormat settings, QPel            : No\nFormat settings, GMC             : No warppoints\nFormat settings, Matrix          : Default (H.263)\nCodec ID                         : XVID\nCodec ID/Hint                    : XviD\nDuration                         : 1h 29mn\nBit rate                         : 1 794 Kbps\nWidth                            : 652 pixels\nHeight                           : 352 pixels\nDisplay aspect ratio             : 1.852\nFrame rate                       : 25.000 fps\nColor space                      : YUV\nChroma subsampling               : 4:2:0\nBit depth                        : 8 bits\nScan type                        : Progressive\nBits/(Pixel*Frame)               : 0.313\nStream size                      : 1.12 GiB (82%)\nWriting library                  : XviD 1.1.2 (UTC 2006-11-01)\n\nAudio:\n\nFormat                           : AC-3\nFormat/Info                      : Audio Coding 3\nMode extension                   : CM (complete main)\nCodec ID                         : 2000\nDuration                         : 1h 29mn\nBit rate mode                    : Constant\nBit rate                         : 384 Kbps\nChannel(s)                       : 6 channels\nChannel positions                : Front: L C R, Side: L R, LFE\nSampling rate                    : 48.0 KHz\nBit depth                        : 16 bits\nStream size                      : 246 MiB (18%)\nAlignment                        : Aligned on interleaves\nInterleave, duration             : 32 ms (0.80 video frame)\n\n","torrent":{"xt":"urn:btih:b67647a37a202940262708522d129656105f39ec","amp;dn":"Beethoven%5C%27s+4th+2001+DVDrip+English+Klam","amp;tr":["udp%3A%2F%2Ftracker.openbittorrent.com%3A80","udp%3A%2F%2Fopen.demonii.com%3A1337","udp%3A%2F%2Ftracker.coppersurfer.tk%3A6969","udp%3A%2F%2Fexodus.desync.com%3A6969"],"infoHash":"b67647a37a202940262708522d129656105f39ec","infoHashBuffer":{"type":"Buffer","data":[182,118,71,163,122,32,41,64,38,39,8,82,45,18,150,86,16,95,57,236]},"announce":[],"urlList":[]}}